<svg width="24" height="24" viewBox="0 0 24 24" fill="none" xmlns="http://www.w3.org/2000/svg">
<g clip-path="url(#clip0_290_2647)">
<path d="M15.287 3.80707C15.15 3.75032 14.9992 3.73548 14.8537 3.76441C14.7082 3.79334 14.5746 3.86476 14.4697 3.96962L6.96969 11.4696C6.90004 11.5393 6.84479 11.622 6.8071 11.713C6.7694 11.804 6.75 11.9015 6.75 12C6.75 12.0985 6.7694 12.196 6.8071 12.287C6.84479 12.378 6.90004 12.4607 6.96969 12.5304L14.4697 20.0304C14.5746 20.1352 14.7082 20.2067 14.8537 20.2356C14.9992 20.2645 15.15 20.2497 15.287 20.1929C15.4241 20.1361 15.5412 20.04 15.6236 19.9167C15.706 19.7933 15.75 19.6483 15.75 19.5V4.49999C15.75 4.35165 15.706 4.20665 15.6236 4.08331C15.5412 3.95998 15.4241 3.86384 15.287 3.80707Z" fill="black"/>
</g>
<defs>
<clipPath id="clip0_290_2647">
<rect width="24" height="24" fill="white"/>
</clipPath>
</defs>
</svg>
