<svg width="24" height="24" viewBox="0 0 24 24" fill="none" xmlns="http://www.w3.org/2000/svg">
<g clip-path="url(#clip0_290_2651)">
<path d="M17.0303 11.4696L9.53032 3.96965C9.42543 3.86476 9.29179 3.79334 9.1463 3.76441C9.00081 3.73547 8.85002 3.75033 8.71298 3.8071C8.57593 3.86387 8.4588 3.96 8.37639 4.08334C8.29398 4.20667 8.25 4.35168 8.25 4.50001V19.5C8.25 19.6483 8.29399 19.7933 8.3764 19.9167C8.45881 20.04 8.57594 20.1361 8.71298 20.1929C8.85002 20.2497 9.00082 20.2645 9.1463 20.2356C9.29179 20.2067 9.42542 20.1353 9.53032 20.0304L17.0303 12.5304C17.1 12.4607 17.1552 12.378 17.1929 12.287C17.2306 12.196 17.25 12.0985 17.25 12C17.25 11.9015 17.2306 11.804 17.1929 11.713C17.1552 11.622 17.1 11.5393 17.0303 11.4696Z" fill="black"/>
</g>
<defs>
<clipPath id="clip0_290_2651">
<rect width="24" height="24" fill="white"/>
</clipPath>
</defs>
</svg>
