<svg width="182" height="34" viewBox="0 0 182 34" fill="none" xmlns="http://www.w3.org/2000/svg">
<path d="M38.5044 9.98486C36.99 9.98486 35.7412 11.1893 35.7412 12.7079V18.4684V24.2288H38.5044V18.4684V12.7079H41.7991H45.0937V9.98486H41.7991H38.5044Z" fill="#E1E1E6"/>
<path d="M61.5662 17.0795V12.6806C61.5662 11.1881 60.344 9.95752 58.8029 9.95752H54.3392H49.8755C48.3611 9.95752 47.1123 11.1619 47.1123 12.6806V17.0795V21.4784C47.1123 22.9709 48.3345 24.2015 49.8755 24.2015H54.3392H58.8029C60.3174 24.2015 61.5662 22.997 61.5662 21.4784V17.0795ZM58.8029 17.0795V21.4784H54.3392H49.8755V17.0795V12.6806H54.3392H58.8029V17.0795Z" fill="#E1E1E6"/>
<path d="M67.0943 9.98486C65.5798 9.98486 64.3311 11.1893 64.3311 12.7079V17.1068V21.5057C64.3311 22.9982 65.5533 24.2288 67.0943 24.2288L76.8188 24.0979V21.5057H67.0943V17.1068V12.7079H76.8188V10.1157L67.0943 9.98486Z" fill="#E1E1E6"/>
<path d="M92.6572 9.98486H88.9109L83.4376 15.7191H82.3482V9.98486H79.585V17.0806V24.2027H82.3482V18.4422H83.7298H83.9424L89.6283 24.2027H93.4277L86.1211 16.7664L92.6572 9.98486Z" fill="#E1E1E6"/>
<path d="M96.7701 21.4784V18.4411L108.461 18.3101V15.7179V12.6806C108.461 11.1881 107.239 9.95752 105.697 9.95752H101.234H96.7701C95.2556 9.95752 94.0068 11.1619 94.0068 12.6806V17.0795V21.4784C94.0068 22.9709 95.229 24.2015 96.7701 24.2015L108.461 24.0706V21.4784H96.7701ZM96.7701 12.6806H101.234H105.697V15.7179H102.615H96.7701V12.6806Z" fill="#E1E1E6"/>
<path d="M115.396 5.8208H114.334L112.633 7.88933V9.95786H110.534V12.6809L112.633 12.6548V21.4787C112.633 22.9712 113.855 24.2018 115.396 24.2018L119.86 24.0709V21.4787H115.396V12.6286L120.259 12.55V9.95786H115.396V5.8208Z" fill="#E1E1E6"/>
<path d="M134.819 18.4411C134.819 16.9486 133.597 15.7179 132.056 15.7179H128.575H125.094V12.6806H134.819V10.0884L125.094 9.95752C123.58 9.95752 122.331 11.1619 122.331 12.6806V15.7179C122.331 17.2104 123.553 18.4411 125.094 18.4411H128.575H132.056V21.4784H122.331V24.0706L132.056 24.2015C133.57 24.2015 134.819 22.997 134.819 21.4784V18.4411Z" fill="#E1E1E6"/>
<path d="M149.244 9.98486H144.781H140.317C138.802 9.98486 137.554 11.1893 137.554 12.7079V17.1068V21.5057C137.554 22.9982 138.776 24.2288 140.317 24.2288L152.008 24.0979V21.5057H140.317V18.4684L152.008 18.3375V15.7453V12.7079C152.008 11.1893 150.785 9.98486 149.244 9.98486ZM149.244 15.7191H140.317V12.6818H144.781H149.244V15.7191Z" fill="#E1E1E6"/>
<path d="M166.463 9.98486L154.772 10.1157V12.7079H166.463V15.7453L154.772 15.8762V18.4684V21.5057C154.772 22.9982 155.995 24.2288 157.536 24.2288H161.999H166.463C167.978 24.2288 169.226 23.0244 169.226 21.5057V17.1068V12.7079C169.2 11.1893 167.978 9.98486 166.463 9.98486ZM166.463 21.4795H161.999H157.536V18.4422H166.463V21.4795Z" fill="#E1E1E6"/>
<path d="M176.139 12.627L181.001 12.5485V9.95621H176.139V5.79297H175.076L173.375 7.8615V9.93002H171.276V12.6532L173.375 12.627V21.451C173.375 22.9435 174.598 24.1741 176.139 24.1741L180.602 24.0432V21.451H176.139V12.627Z" fill="#E1E1E6"/>
<path d="M28.4323 0.66205L23.942 0.00745312C23.8092 -0.0187308 23.6763 0.0336338 23.6232 0.0860015L21.7102 2.54728C21.5773 2.70438 21.5508 2.91386 21.6039 3.09714C21.657 3.28043 21.4976 3.43754 21.3116 3.41135L19.744 3.07096C19.5049 3.01859 19.2392 3.09715 19.0798 3.30662L12.8625 11.1617C12.7562 11.3188 12.5437 11.3712 12.3577 11.2927L9.99298 10.2453C9.78042 10.1406 9.54129 10.1668 9.35531 10.2977L8.15967 11.1094C7.97369 11.2403 7.70799 11.2665 7.49543 11.1617L6.9109 10.8737C6.53893 10.6904 6.08724 10.8999 5.98097 11.2927L5.55585 13.1517C5.44957 13.5968 5.63556 14.042 6.0341 14.2776L6.93747 14.8275L9.83356 16.5818L11.2417 17.4459C11.6403 17.6815 12.1451 17.6292 12.4905 17.3411L14.8552 15.2988C15.0412 15.1417 15.3335 15.0893 15.546 15.2202L16.2634 15.5868C16.5025 15.7177 16.7948 15.6654 16.9808 15.4821L18.1764 14.3824C18.3624 14.1991 18.6547 14.1729 18.8672 14.2776L20.6474 15.0893C20.9131 15.2202 21.2319 15.1417 21.4179 14.906L22.2416 13.8587L28.4854 5.97737C28.7777 5.6108 28.5917 5.06094 28.1135 4.9562L26.7318 4.64199C26.4396 4.58962 26.3067 4.22305 26.5193 4.01358L28.6714 1.36901C28.884 1.0548 28.7511 0.714418 28.4323 0.66205Z" fill="#8257E6"/>
<path d="M7.84077 16.5281C7.70792 16.4495 7.57507 16.5804 7.62821 16.7113L8.29245 18.4395C8.34559 18.5704 8.34559 18.7013 8.31902 18.8322L7.73449 21.0841C7.70792 21.2412 7.76105 21.3983 7.86733 21.4768L9.54122 22.7598C9.70064 22.8646 9.91319 22.8646 10.046 22.7336L11.7996 21.215C11.9059 21.1364 12.0388 21.0841 12.145 21.0579L14.1378 20.8484C14.2706 20.8222 14.3238 20.6389 14.1909 20.5604L7.84077 16.5281Z" fill="#8257E6"/>
<path d="M7.25737 22.3414C7.15109 22.2628 6.99167 22.2366 6.85882 22.289L5.45064 22.9698C5.37093 22.996 5.31778 23.0745 5.26464 23.1531L2.26228 30.4584C2.26228 30.4846 2.26228 30.4846 2.26228 30.5107C2.28885 30.5369 2.31542 30.5631 2.36856 30.5631L3.05937 30.3013C3.08594 30.3013 3.11251 30.3013 3.13908 30.3013C3.16564 30.3275 3.19222 30.3798 3.16565 30.406L1.01351 33.8885C0.960367 33.967 1.06665 34.0456 1.11979 33.967L8.90469 26.269C8.98439 26.1904 9.01096 26.1119 9.03753 26.0071L9.19695 24.0171C9.19695 23.8862 9.14381 23.7815 9.0641 23.7029L7.25737 22.3414Z" fill="#8257E6"/>
</svg>
