<svg width="240" height="138" viewBox="0 0 240 138" fill="none" xmlns="http://www.w3.org/2000/svg">
<path d="M23.4583 91.8914C35.8616 91.8914 45.9164 81.8325 45.9164 69.4242C45.9164 57.016 35.8616 46.9572 23.4583 46.9572C11.0549 46.9572 1 57.016 1 69.4242C1 81.8325 11.0549 91.8914 23.4583 91.8914Z" fill="#00E7C3"/>
<path d="M36.5305 97.059C42.6195 108.234 52.6815 112.629 63.1325 112.629C79.9025 112.629 100.447 84.427 113.604 61.599C130.634 32.029 149.55 2 176.932 2C197.865 2 218.798 15.002 227.502 40.707C223.825 39.2218 219.896 38.4622 215.932 38.47C211.387 38.4637 206.898 39.4629 202.786 41.396C196.836 28.803 186.256 23.92 175.225 23.92C158.445 23.92 142.831 44.442 125.113 74.021C106.096 105.758 88.8075 134.548 61.4165 134.548C41.2315 134.548 21.0475 122.455 11.8335 98.548C11.9435 98.578 12.0935 98.608 12.2735 98.628C15.5789 99.7948 19.0592 100.389 22.5645 100.385C27.5855 100.385 32.3375 99.187 36.5305 97.059Z" fill="#00E7C3"/>
<path d="M13.3115 39.878C22.1055 14.723 42.6495 2 63.1925 2C90.3645 2 108.263 29.542 128.498 56.935C143.731 77.576 160.82 104.959 177.471 104.959C187.563 104.959 190.568 102.881 197.915 94.603C203.167 98.3693 209.469 100.392 215.933 100.385C219.546 100.385 223.02 99.765 226.254 98.627C226.574 98.617 226.824 98.597 226.994 98.547C217.839 122.455 195.359 135.637 175.334 135.637C148.163 135.637 129.905 108.494 110.769 81.421C90.9135 53.32 76.0505 32.149 59.4095 31.59C51.8725 31.34 44.9555 35.914 39.5545 43.553C34.5125 40.2287 28.6039 38.461 22.5645 38.47C19.3405 38.47 16.2365 38.96 13.3115 39.878Z" fill="#00E7C3"/>
<path d="M215.926 91.8914C228.329 91.8914 238.384 81.8325 238.384 69.4242C238.384 57.016 228.329 46.9572 215.926 46.9572C203.523 46.9572 193.468 57.016 193.468 69.4242C193.468 81.8325 203.523 91.8914 215.926 91.8914Z" fill="#00E7C3"/>
</svg>
