<svg width="256" height="310" viewBox="0 0 256 310" fill="none" xmlns="http://www.w3.org/2000/svg">
<g clipPath="url(#clip0_907_1138)">
<path d="M254.314 235.519L148.002 9.74982C145.311 4.0893 139.733 0.359833 133.473 0.0359235C127.2 -0.384426 121.213 2.71921 117.94 8.08834L2.63328 194.847C-0.946378 200.604 -0.871063 207.913 2.82647 213.595L59.2011 300.896C63.5813 307.627 71.867 310.674 79.5639 308.385L243.162 259.993C248.146 258.536 252.254 254.989 254.422 250.271C256.561 245.576 256.524 240.177 254.321 235.511L254.314 235.519ZM230.512 245.202L91.6889 286.252C87.4541 287.512 83.3892 283.841 84.2702 279.567L133.867 42.0831C134.795 37.6396 140.931 36.9364 142.87 41.0476L234.685 236.021C235.506 237.779 235.516 239.809 234.712 241.576C233.908 243.342 232.37 244.667 230.504 245.202H230.512Z" fill="#5A67D8"/>
</g>
<defs>
<clipPath id="clip0_907_1138">
<rect width="256" height="310" fill="white"/>
</clipPath>
</defs>
</svg>
