<svg width="100" height="100" viewBox="0 0 100 100" fill="none" xmlns="http://www.w3.org/2000/svg">
<path d="M50 58.9064C54.9188 58.9064 58.9063 54.9189 58.9063 50.0001C58.9063 45.0813 54.9188 41.0939 50 41.0939C45.0812 41.0939 41.0938 45.0813 41.0938 50.0001C41.0938 54.9189 45.0812 58.9064 50 58.9064Z" fill="#61DAFB"/>
<path d="M83.8281 35.3126C82.1094 34.6876 80.3125 34.0626 78.4375 33.5157C78.9062 31.6407 79.2969 29.7657 79.6094 27.9689C81.25 17.6564 79.4531 10.3907 74.4531 7.57825C72.9688 6.71887 71.3281 6.32825 69.4531 6.32825C63.9844 6.32825 57.0312 10.3907 50 17.1876C42.9688 10.3907 36.0156 6.32825 30.5469 6.32825C28.6719 6.32825 27.0312 6.71887 25.5469 7.57825C20.5469 10.4689 18.75 17.7345 20.3906 27.9689C20.7031 29.7657 21.0938 31.6407 21.5625 33.5157C19.6875 34.0626 17.8906 34.6095 16.1719 35.3126C6.40625 39.0626 1.09375 44.2189 1.09375 50.0001C1.09375 55.7814 6.48438 60.9376 16.1719 64.6876C17.8906 65.3126 19.6875 65.9376 21.5625 66.4845C21.0938 68.3595 20.7031 70.2345 20.3906 72.0314C18.75 82.3439 20.5469 89.6095 25.5469 92.422C27.0312 93.2814 28.6719 93.672 30.5469 93.672C36.0937 93.672 43.0469 89.6095 50 82.8126C57.0312 89.6095 63.9844 93.672 69.4531 93.672C71.3281 93.672 72.9688 93.2814 74.4531 92.422C79.4531 89.5314 81.25 82.2657 79.6094 72.0314C79.2969 70.2345 78.9062 68.3595 78.4375 66.4845C80.3125 65.9376 82.1094 65.3908 83.8281 64.6876C93.5938 60.9376 98.9062 55.7814 98.9062 50.0001C98.9062 44.2189 93.5938 39.0626 83.8281 35.3126ZM72.2656 11.4845C75.4688 13.3595 76.5625 19.1407 75.2344 27.3439C75 28.9845 74.6094 30.7032 74.1406 32.5001C70.0781 31.5626 65.7812 30.9376 61.25 30.547C58.5938 26.797 55.8594 23.4376 53.125 20.3907C58.9062 14.6876 64.7656 10.7814 69.5312 10.7814C70.5469 10.7814 71.4844 11.0157 72.2656 11.4845ZM63.5156 57.8126C62.1094 60.3126 60.4687 62.8126 58.75 65.3126C55.8594 65.547 52.9688 65.6251 50 65.6251C46.9531 65.6251 44.0625 65.547 41.25 65.3126C39.5312 62.8126 37.9688 60.3126 36.5625 57.8126C35.0781 55.2345 33.6719 52.5782 32.4219 50.0001C33.6719 47.422 35.0781 44.7657 36.5625 42.1876C37.9688 39.6876 39.6094 37.1876 41.3281 34.6876C44.2188 34.4532 47.1094 34.3751 50.0781 34.3751C53.125 34.3751 56.0156 34.4532 58.8281 34.6876C60.5469 37.1876 62.1094 39.6876 63.5156 42.1876C65 44.7657 66.4062 47.422 67.6562 50.0001C66.3281 52.5782 65 55.1564 63.5156 57.8126ZM70 55.2345C71.1719 57.9689 72.1094 60.6251 72.9688 63.2814C70.3125 63.9064 67.5 64.3751 64.5312 64.7658C65.4688 63.2814 66.4844 61.7189 67.3438 60.0783C68.2812 58.4376 69.1406 56.797 70 55.2345ZM50 76.4064C48.125 74.3751 46.3281 72.1876 44.6094 69.922C46.4062 70.0001 48.2031 70.0782 50 70.0782C51.7969 70.0782 53.5938 70.0001 55.3906 69.922C53.6719 72.1876 51.875 74.3751 50 76.4064ZM35.4688 64.6876C32.5 64.297 29.6875 63.8283 27.0312 63.2033C27.8906 60.6251 28.8281 57.8907 30 55.1564C30.8594 56.7189 31.7187 58.3595 32.6562 59.922C33.5938 61.6407 34.5312 63.1251 35.4688 64.6876ZM30 44.7657C28.8281 42.0314 27.8906 39.3751 27.0312 36.7189C29.6875 36.0939 32.5 35.6251 35.4688 35.2345C34.5312 36.7189 33.5156 38.2814 32.6562 39.922C31.7187 41.5626 30.8594 43.2032 30 44.7657ZM50 23.5939C51.875 25.6251 53.6719 27.8126 55.3906 30.0782C53.5938 30.0001 51.7969 29.922 50 29.922C48.2031 29.922 46.4062 30.0001 44.6094 30.0782C46.3281 27.8126 48.125 25.6251 50 23.5939ZM67.3438 40.0001L64.5312 35.3126C67.5 35.7032 70.3125 36.172 72.9688 36.797C72.1094 39.3751 71.1719 42.1095 70 44.8439C69.1406 43.2033 68.2812 41.5626 67.3438 40.0001ZM24.7656 27.3439C23.4375 19.1407 24.5312 13.3595 27.7344 11.4845C28.5156 11.0157 29.4531 10.7814 30.4687 10.7814C35.1562 10.7814 41.0156 14.6095 46.875 20.3907C44.1406 23.3595 41.4062 26.797 38.75 30.547C34.2187 30.9376 29.9219 31.6407 25.8594 32.5001C25.3906 30.7032 25.0781 28.9845 24.7656 27.3439ZM5.46875 50.0001C5.46875 46.3282 9.92188 42.422 17.7344 39.5314C19.2969 38.9064 21.0156 38.3595 22.7344 37.8907C23.9844 41.797 25.5469 45.9376 27.4219 50.0782C25.5469 54.2189 23.9062 58.2814 22.7344 62.1876C11.9531 59.0626 5.46875 54.3751 5.46875 50.0001ZM27.7344 88.5157C24.5312 86.6407 23.4375 80.8595 24.7656 72.6564C25 71.0157 25.3906 69.297 25.8594 67.5001C29.9219 68.4376 34.2187 69.0626 38.75 69.4533C41.4062 73.2032 44.1406 76.5626 46.875 79.6095C41.0938 85.3126 35.2344 89.2189 30.4687 89.2189C29.4531 89.2189 28.5156 88.9845 27.7344 88.5157ZM75.2344 72.6564C76.5625 80.8595 75.4688 86.6407 72.2656 88.5157C71.4844 88.9845 70.5469 89.2189 69.5312 89.2189C64.8438 89.2189 58.9844 85.3907 53.125 79.6095C55.8594 76.6407 58.5938 73.2032 61.25 69.4533C65.7812 69.0626 70.0781 68.3595 74.1406 67.5001C74.6094 69.297 74.9219 71.0157 75.2344 72.6564ZM82.2656 60.4689C80.7031 61.0939 78.9844 61.6407 77.2656 62.1095C76.0156 58.2032 74.4531 54.0626 72.5781 49.922C74.4531 45.7814 76.0938 41.7189 77.2656 37.8126C88.0469 40.9376 94.5312 45.6251 94.5312 50.0001C94.5312 53.672 90 57.5783 82.2656 60.4689Z" fill="#61DAFB"/>
</svg>
