<svg width="150" height="41" viewBox="0 0 150 41" fill="none" xmlns="http://www.w3.org/2000/svg">
<g clip-path="url(#clip0_271_2223)">
<path d="M34.5477 11.4576C34.9819 10.9887 35.685 10.9887 36.1188 11.4576L41.6743 17.4562C42.1086 17.9246 42.1086 18.6842 41.6743 19.1526L36.1188 25.1512C35.9019 25.3859 35.6179 25.503 35.3335 25.503C35.049 25.503 34.765 25.3859 34.5477 25.1517C34.1135 24.6828 34.1135 23.9237 34.5477 23.4553L39.3179 18.3046L34.5482 13.1545C34.1139 12.6861 34.1139 11.926 34.5477 11.4576Z" fill="#E2E8F0"/>
<path d="M7.88111 11.4576C8.31533 10.9887 9.01844 10.9887 9.45221 11.4576C9.88643 11.926 9.88643 12.6856 9.45221 13.154L4.68246 18.3046L9.45266 23.4548C9.88688 23.9237 9.88688 24.6828 9.45266 25.1512C9.23532 25.3859 8.95133 25.503 8.66688 25.503C8.38244 25.503 8.09844 25.3859 7.88111 25.1517L2.32559 19.1531C1.89137 18.6847 1.89137 17.9251 2.32559 17.4567L7.88111 11.4576Z" fill="#E2E8F0"/>
<path d="M15.0651 3.64019L17.1535 2.81958C17.4597 2.69913 17.7797 2.63818 18.1037 2.63818C19.2668 2.63818 20.3161 3.43144 20.7139 4.61197L21.4735 6.86552C21.4735 6.866 21.4739 6.86648 21.4744 6.86696C21.4748 6.86744 21.4744 6.86792 21.4744 6.8684L29.0743 29.4145C29.0974 29.4832 29.105 29.5551 29.1041 29.6276C29.1041 29.6396 29.105 29.6516 29.1041 29.6636C29.1037 29.6718 29.105 29.6799 29.1041 29.6881L28.2521 37.683C28.2277 37.909 28.0877 38.1005 27.8903 38.1783C27.8281 38.2027 27.7641 38.2143 27.7001 38.2143C27.5606 38.2143 27.4232 38.1572 27.3183 38.0501L21.9055 32.517C21.8926 32.5041 21.8832 32.4877 21.8717 32.4733C21.861 32.4599 21.8499 32.4474 21.8401 32.433C21.8095 32.3879 21.7828 32.3395 21.765 32.2867L14.1651 9.74006C14.1651 9.74006 14.1651 9.73958 14.1646 9.73958L13.4046 7.48458C13.1513 6.73163 13.1837 5.91726 13.4971 5.19119C13.8117 4.46512 14.3682 3.91421 15.0651 3.64019ZM19.6699 5.02227C19.4313 4.31348 18.8019 3.83743 18.1042 3.83743C17.9099 3.83743 17.7184 3.87438 17.5344 3.94684L15.446 4.76745C15.0277 4.93157 14.694 5.26222 14.506 5.69747C14.3175 6.13321 14.298 6.62174 14.4504 7.07332L15.0206 8.76444L18.6739 7.32862C18.6744 7.32862 18.6744 7.32814 18.6748 7.32814C18.6753 7.32814 18.6753 7.32814 18.6757 7.32814L20.241 6.71292L19.6699 5.02227ZM22.6197 31.3125L23.6641 30.9022L16.4437 9.48284L15.4002 9.89314L22.6197 31.3125ZM25.7521 30.0816L18.5317 8.66175L17.4877 9.07205L24.7086 30.4914L25.7521 30.0816ZM27.8405 29.261L20.6201 7.84114L19.5762 8.25144L26.7966 29.6713L27.8405 29.261ZM27.8979 30.5154L26.6548 31.0039L24.5668 31.8241C24.5668 31.8241 24.5663 31.8241 24.5663 31.8245L23.3228 32.3131L27.2757 36.3537L27.8979 30.5154Z" fill="#E2E8F0"/>
<path d="M72.4044 22.779L72.4106 22.7787C72.7679 22.7787 73.0485 23.0822 73.0485 23.5024V31.9801H50.676C50.2869 31.9801 50.0062 31.6771 50.0062 31.2569C50.0062 30.8711 50.2869 30.568 50.676 30.568H51.4791C52.2919 30.568 52.8834 29.9308 52.8834 29.2148L52.8772 3.25933C52.8772 2.53608 52.2923 1.8917 51.4733 1.8917H50.6703C50.2811 1.8917 50 1.58818 50 1.20239C50 0.782213 50.2811 0.479147 50.6703 0.479147H72.9875V8.95688C72.9875 9.37706 72.7068 9.6806 72.3176 9.6806C71.9604 9.6806 71.6797 9.37708 71.6797 8.95688V8.15903C71.6797 4.86068 69.8646 1.89216 66.2343 1.89216H60.5078C59.695 1.89216 59.1035 2.51884 59.1035 3.24544V14.848H60.6698C64.0039 14.848 65.1824 13.5655 65.1824 10.5802V10.366C65.1824 9.98026 65.4954 9.64226 65.8527 9.64226C66.21 9.64226 66.5231 9.98024 66.5231 10.366V20.8118C66.5231 21.1976 66.21 21.5356 65.8527 21.5356C65.4954 21.5356 65.1824 21.232 65.1824 20.7077V20.4801C65.1824 17.6813 64.0681 16.3295 60.6698 16.3295H59.1035V29.2002C59.1035 29.9302 59.6883 30.5674 60.5074 30.5674H66.2888C69.919 30.5674 71.7341 27.5989 71.7341 24.3005V23.5027C71.7341 23.0825 72.0153 22.779 72.4044 22.779ZM105.528 29.7562L105.532 29.7552C105.857 29.7552 106.041 30.0239 106.041 30.3403C106.041 31.3772 104.125 32.4431 101.831 32.4431C90.6405 32.4431 99.6127 17.4607 88.335 17.4607H86.6408V29.1995C86.6408 29.9228 87.2256 30.5671 88.0446 30.5671H88.8477C89.2368 30.5671 89.5179 30.8702 89.5179 31.256C89.5179 31.6762 89.2368 31.9792 88.8477 31.9792H78.2075C77.8183 31.9792 77.5377 31.6762 77.5377 31.256C77.5377 30.8702 77.8183 30.5671 78.2075 30.5671H79.0105C79.8234 30.5671 80.4148 29.9405 80.4148 29.2139L80.4087 3.25843C80.4087 2.52849 79.8238 1.89129 79.0048 1.89129H78.2017C77.8126 1.89129 77.5315 1.58777 77.5315 1.20198C77.5315 0.781798 77.8126 0.478732 78.2017 0.478732H91.1334C98.1695 0.478732 101.974 3.34017 101.974 8.40721C101.974 12.5775 98.9513 15.5393 93.841 16.5374C104.622 18.6168 99.3732 30.5495 103.463 30.5495C104.603 30.5495 104.918 29.7562 105.528 29.7562ZM86.6405 16.0129H89.315C94.0764 16.0129 95.3833 12.182 95.3833 8.61355C95.3833 4.95094 93.5956 1.89016 88.8572 1.89016H88.0448C87.232 1.89016 86.6406 2.52737 86.6406 3.24345L86.6405 16.0129ZM118.243 30.5675C118.632 30.5675 118.913 30.87 118.913 31.2558C118.913 31.6759 118.632 31.979 118.243 31.979H107.602C107.213 31.979 106.932 31.676 106.932 31.2558C106.932 30.87 107.213 30.5669 107.602 30.5669H108.405C109.218 30.5669 109.81 29.9402 109.81 29.2136L109.803 3.25822C109.803 2.52828 109.219 1.89107 108.4 1.89107H107.597C107.207 1.89107 106.926 1.58755 106.926 1.20176C106.926 0.781583 107.207 0.478516 107.597 0.478516H118.237C118.626 0.478516 118.907 0.781571 118.907 1.20176C118.907 1.58754 118.626 1.89107 118.237 1.89107H117.434C116.621 1.89107 116.029 2.52828 116.029 3.24435L116.036 29.1998C116.036 29.923 116.621 30.5674 117.44 30.5674L118.243 30.5675ZM132.321 30.5675C132.71 30.5675 132.991 30.87 132.991 31.2558C132.991 31.6759 132.71 31.979 132.321 31.979H121.681C121.291 31.979 121.011 31.676 121.011 31.2558C121.011 30.87 121.291 30.5669 121.681 30.5669H122.484C123.297 30.5669 123.888 29.9402 123.888 29.2136L123.882 3.25822C123.882 2.52828 123.297 1.89107 122.478 1.89107H121.675C121.286 1.89107 121.005 1.58755 121.005 1.20176C121.005 0.781583 121.286 0.478516 121.675 0.478516H132.315C132.704 0.478516 132.985 0.781571 132.985 1.20176C132.985 1.58754 132.704 1.89107 132.315 1.89107H131.512C130.699 1.89107 130.108 2.52828 130.108 3.24435L130.114 29.1998C130.114 29.923 130.699 30.5674 131.518 30.5674L132.321 30.5675ZM149.329 30.567C149.718 30.567 150 30.8701 150 31.2903C150 31.676 149.719 31.9791 149.33 31.9791H138.018C137.629 31.9791 137.348 31.676 137.348 31.2559C137.348 30.8701 137.629 30.567 138.018 30.567H138.472C139.447 30.567 139.65 29.8548 139.123 29.0522L130.637 16.4706L143.376 3.276C143.945 2.70333 143.749 1.89165 142.761 1.89165H141.423C141.034 1.89165 140.753 1.58813 140.753 1.16792C140.753 0.782144 141.034 0.47909 141.423 0.47909H148.895C149.284 0.47909 149.565 0.782144 149.565 1.20234C149.565 1.58811 149.284 1.89165 148.895 1.89165H148.472C147.203 1.89165 146.487 2.21287 145.451 3.276L135.922 13.1744L146.884 29.4678C147.384 30.2193 147.947 30.5673 148.876 30.5673L149.329 30.567Z" fill="#E2E8F0"/>
<path d="M51.0823 38.8567C51.1022 38.8567 51.1155 38.8711 51.1155 38.8925V39.0344C51.1155 39.0559 51.1022 39.0702 51.0823 39.0702H50.5533V39.9896C50.5533 40.0111 50.5401 40.0254 50.5202 40.0254H50.3479C50.328 40.0254 50.3148 40.0111 50.3148 39.9896V39.0702H50.0331C50.0133 39.0702 50 39.0559 50 39.0344V38.8925C50 38.8711 50.0133 38.8567 50.0331 38.8567H50.3148V38.7399C50.3148 38.3678 50.5445 38.27 50.7996 38.27C50.9288 38.27 51.1044 38.2963 51.1044 38.3475V38.4823C51.1044 38.5061 51.089 38.5204 51.0647 38.5157C51.0382 38.5109 50.9785 38.4883 50.8537 38.4883C50.6925 38.4883 50.5533 38.5395 50.5533 38.7637V38.8567H51.0823ZM55.9772 38.8305C56.2158 38.8305 56.3914 38.9879 56.3914 39.2849C56.3914 39.3075 56.3803 39.3206 56.3594 39.323L56.1871 39.3493C56.1661 39.3528 56.1539 39.3397 56.1517 39.3171C56.1418 39.1429 56.0424 39.0702 55.901 39.0702C55.6779 39.0702 55.5741 39.2717 55.5741 39.3433V39.9896C55.5741 40.0111 55.5608 40.0254 55.541 40.0254H55.3687C55.3488 40.0254 55.3355 40.0111 55.3355 39.9896V38.8925C55.3355 38.8711 55.3488 38.8567 55.3687 38.8567H55.5321C55.552 38.8567 55.5631 38.8711 55.5653 38.8925L55.5741 39.0499H55.5984C55.6691 38.9378 55.8005 38.8305 55.9772 38.8305ZM61.1526 40.0564C60.8379 40.0564 60.5838 39.7869 60.5838 39.4435C60.5838 39.1012 60.8379 38.8305 61.1526 38.8305C61.4663 38.8305 61.7203 39.1012 61.7203 39.4435C61.7203 39.7869 61.4663 40.0564 61.1526 40.0564ZM61.1526 39.8167C61.3426 39.8167 61.4895 39.6498 61.4895 39.4435C61.4895 39.2383 61.3426 39.069 61.1526 39.069C60.9616 39.069 60.8147 39.2383 60.8147 39.4435C60.8147 39.6498 60.9616 39.8167 61.1526 39.8167ZM66.5887 38.8305C66.8195 38.8305 66.9796 38.9998 66.9796 39.3123V39.9896C66.9796 40.0111 66.9664 40.0254 66.9465 40.0254H66.7742C66.7543 40.0254 66.7411 40.0111 66.7411 39.9896V39.3504C66.7411 39.1513 66.6461 39.0678 66.5014 39.0678C66.2916 39.0678 66.201 39.2634 66.201 39.3159V39.9896C66.201 40.0111 66.1878 40.0254 66.1679 40.0254H65.9956C65.9757 40.0254 65.9625 40.0111 65.9625 39.9896V38.8925C65.9625 38.8711 65.9757 38.8567 65.9956 38.8567H66.159C66.1789 38.8567 66.19 38.8711 66.1922 38.8925L66.201 39.0499H66.2242C66.2883 38.9378 66.4064 38.8305 66.5887 38.8305ZM72.2975 39.8286C72.3097 39.8442 72.3119 39.862 72.2997 39.8775C72.2533 39.9396 72.1329 40.0445 71.9353 40.0445C71.7088 40.0445 71.4957 39.9539 71.4957 39.5711V39.0726H71.2218C71.2019 39.0726 71.1887 39.0583 71.1887 39.0368V38.8925C71.1887 38.8711 71.2019 38.8567 71.2218 38.8567H71.4957V38.5467C71.4957 38.5252 71.5089 38.5109 71.5288 38.5109H71.7011C71.721 38.5109 71.7342 38.5252 71.7342 38.5467V38.8567H72.1705C72.1904 38.8567 72.2036 38.8711 72.2036 38.8925V39.0368C72.2036 39.0583 72.1904 39.0726 72.1705 39.0726H71.7342V39.5436C71.7342 39.7666 71.8535 39.8131 71.9761 39.8131C72.0678 39.8131 72.1341 39.7702 72.1771 39.7332C72.1926 39.7177 72.2103 39.7189 72.2235 39.7356L72.2975 39.8286ZM77.0367 38.8305C77.3636 38.8305 77.5602 39.1012 77.5602 39.4136C77.5602 39.5019 77.5502 39.546 77.4884 39.546H76.7164C76.7418 39.7273 76.882 39.8442 77.0819 39.8442C77.1979 39.8442 77.2785 39.806 77.3525 39.7452C77.3702 39.7309 77.3834 39.7273 77.4 39.7452L77.4729 39.8239C77.4895 39.8418 77.4906 39.8585 77.4729 39.8775C77.368 39.9908 77.231 40.0564 77.0576 40.0564C76.7131 40.0564 76.4844 39.7869 76.4844 39.4435C76.4844 39.1 76.7131 38.8305 77.0367 38.8305ZM77.0378 39.0511C76.8688 39.0511 76.7429 39.1704 76.7186 39.36H77.3503C77.3326 39.1728 77.2101 39.0511 77.0378 39.0511ZM82.4285 38.8305C82.6594 38.8305 82.8195 38.9998 82.8195 39.3123V39.9896C82.8195 40.0111 82.8062 40.0254 82.7864 40.0254H82.6141C82.5942 40.0254 82.5809 40.0111 82.5809 39.9896V39.3504C82.5809 39.1513 82.486 39.0678 82.3413 39.0678C82.1314 39.0678 82.0409 39.2634 82.0409 39.3159V39.9896C82.0409 40.0111 82.0276 40.0254 82.0077 40.0254H81.8354C81.8156 40.0254 81.8023 40.0111 81.8023 39.9896V38.8925C81.8023 38.8711 81.8156 38.8567 81.8354 38.8567H81.9989C82.0188 38.8567 82.0298 38.8711 82.032 38.8925L82.0409 39.0499H82.0641C82.1281 38.9378 82.2463 38.8305 82.4285 38.8305ZM88.123 38.3559C88.1429 38.3559 88.1561 38.3702 88.1561 38.3917V39.9896C88.1561 40.0111 88.1429 40.0254 88.123 40.0254H87.9673C87.9474 40.0254 87.9364 40.0111 87.9342 39.9896L87.9264 39.8799C87.8447 39.9837 87.7265 40.0564 87.5653 40.0564C87.256 40.0564 87.0616 39.7893 87.0616 39.4435C87.0616 39.0976 87.2505 38.8305 87.5653 38.8305C87.7398 38.8305 87.8436 38.9199 87.8966 39.0285H87.9176V38.3917C87.9176 38.3702 87.9308 38.3559 87.9507 38.3559H88.123ZM87.6117 39.8203C87.8071 39.8203 87.9286 39.6653 87.9286 39.4411C87.9286 39.2169 87.8071 39.0666 87.6117 39.0666C87.4118 39.0666 87.2925 39.2169 87.2925 39.4411C87.2925 39.6653 87.4118 39.8203 87.6117 39.8203ZM98.2485 38.3559C98.2684 38.3559 98.2816 38.3702 98.2816 38.3917V39.9896C98.2816 40.0111 98.2684 40.0254 98.2485 40.0254H98.0928C98.0729 40.0254 98.0619 40.0111 98.0596 39.9896L98.0519 39.8799C97.9702 39.9837 97.852 40.0564 97.6908 40.0564C97.3815 40.0564 97.1871 39.7893 97.1871 39.4435C97.1871 39.0976 97.376 38.8305 97.6908 38.8305C97.8653 38.8305 97.9691 38.9199 98.0221 39.0285H98.0431V38.3917C98.0431 38.3702 98.0563 38.3559 98.0762 38.3559H98.2485ZM97.7371 39.8203C97.9326 39.8203 98.0541 39.6653 98.0541 39.4411C98.0541 39.2169 97.9326 39.0666 97.7371 39.0666C97.5372 39.0666 97.418 39.2169 97.418 39.4411C97.418 39.6653 97.5372 39.8203 97.7371 39.8203ZM103.076 38.8305C103.403 38.8305 103.6 39.1012 103.6 39.4136C103.6 39.5019 103.59 39.546 103.528 39.546H102.756C102.781 39.7273 102.921 39.8442 103.121 39.8442C103.237 39.8442 103.318 39.806 103.392 39.7452C103.41 39.7309 103.423 39.7273 103.439 39.7452L103.512 39.8239C103.529 39.8418 103.53 39.8585 103.512 39.8775C103.407 39.9908 103.27 40.0564 103.097 40.0564C102.752 40.0564 102.524 39.7869 102.524 39.4435C102.524 39.1 102.752 38.8305 103.076 38.8305ZM103.077 39.0511C102.908 39.0511 102.782 39.1704 102.758 39.36H103.39C103.372 39.1728 103.249 39.0511 103.077 39.0511ZM108.639 38.8854C108.647 38.8663 108.661 38.8567 108.679 38.8567H108.852C108.877 38.8567 108.889 38.8711 108.879 38.8973L108.451 39.9968C108.445 40.0159 108.429 40.0254 108.412 40.0254H108.23C108.213 40.0254 108.197 40.0159 108.191 39.9968L107.763 38.8973C107.753 38.8711 107.765 38.8567 107.79 38.8567H107.962C107.98 38.8567 107.995 38.8663 108.002 38.8854L108.321 39.7356L108.639 38.8854ZM113.595 38.8305C113.922 38.8305 114.118 39.1012 114.118 39.4136C114.118 39.5019 114.108 39.546 114.046 39.546H113.274C113.3 39.7273 113.44 39.8442 113.64 39.8442C113.756 39.8442 113.837 39.806 113.911 39.7452C113.928 39.7309 113.941 39.7273 113.958 39.7452L114.031 39.8239C114.047 39.8418 114.049 39.8585 114.031 39.8775C113.926 39.9908 113.789 40.0564 113.616 40.0564C113.271 40.0564 113.042 39.7869 113.042 39.4435C113.042 39.1 113.271 38.8305 113.595 38.8305ZM113.596 39.0511C113.427 39.0511 113.301 39.1704 113.277 39.36H113.908C113.891 39.1728 113.768 39.0511 113.596 39.0511ZM119.317 39.8096C119.337 39.8096 119.35 39.8239 119.35 39.8453V39.9896C119.35 40.0111 119.337 40.0254 119.317 40.0254H118.355C118.335 40.0254 118.322 40.0111 118.322 39.9896V39.8453C118.322 39.8239 118.335 39.8096 118.355 39.8096H118.74V38.5717H118.38C118.36 38.5717 118.347 38.5574 118.347 38.536V38.3917C118.347 38.3702 118.36 38.3559 118.38 38.3559H118.946C118.966 38.3559 118.979 38.3702 118.979 38.3917V39.8096H119.317ZM124.106 40.0564C123.791 40.0564 123.537 39.7869 123.537 39.4435C123.537 39.1012 123.791 38.8305 124.106 38.8305C124.419 38.8305 124.673 39.1012 124.673 39.4435C124.673 39.7869 124.419 40.0564 124.106 40.0564ZM124.106 39.8167C124.296 39.8167 124.442 39.6498 124.442 39.4435C124.442 39.2383 124.296 39.069 124.106 39.069C123.915 39.069 123.768 39.2383 123.768 39.4435C123.768 39.6498 123.915 39.8167 124.106 39.8167ZM129.504 38.8317C129.818 38.8317 130 39.0976 130 39.4435C130 39.7893 129.813 40.0552 129.504 40.0552C129.349 40.0552 129.235 39.9873 129.154 39.8871V40.4428C129.154 40.4643 129.141 40.4786 129.121 40.4786H128.949C128.929 40.4786 128.915 40.4643 128.915 40.4428V38.8925C128.915 38.8711 128.929 38.8567 128.949 38.8567H129.121C129.141 38.8567 129.154 38.8711 129.154 38.8925V39.0285H129.176C129.236 38.9199 129.338 38.8317 129.504 38.8317ZM129.457 39.8191C129.663 39.8191 129.769 39.6653 129.769 39.4411C129.769 39.2169 129.663 39.0678 129.457 39.0678C129.269 39.0678 129.152 39.2169 129.152 39.4411C129.152 39.6653 129.269 39.8191 129.457 39.8191Z" fill="#E2E8F0"/>
</g>
<defs>
<clipPath id="clip0_271_2223">
<rect width="150" height="40" fill="white" transform="translate(0 0.478516)"/>
</clipPath>
</defs>
</svg>
