<svg width="378" height="340" viewBox="0 0 378 340" fill="none" xmlns="http://www.w3.org/2000/svg">
<g clip-path="url(#clip0_242_295)">
<path d="M223.683 39.2479C223.684 42.8852 222.792 46.4672 221.084 49.6795C219.376 52.8918 216.905 55.6362 213.888 57.6717C210.871 59.7072 207.399 60.9716 203.779 61.354C200.158 61.7363 196.499 61.2248 193.122 59.8645C189.746 58.5042 186.755 56.3365 184.413 53.5519C182.071 50.7673 180.448 47.4508 179.689 43.8936C178.929 40.3364 179.055 36.6472 180.055 33.1499C181.055 29.6526 182.9 26.4542 185.427 23.8353C185.462 23.7998 185.498 23.7643 185.533 23.7287C185.711 23.542 185.889 23.3554 186.076 23.1776C186.077 23.1776 186.078 23.1774 186.079 23.1769C186.081 23.1765 186.082 23.1758 186.082 23.175C186.083 23.1742 186.084 23.1732 186.084 23.1721C186.085 23.171 186.085 23.1698 186.085 23.1687C186.316 22.9553 186.548 22.742 186.788 22.5376C190.002 19.7226 193.96 17.8926 198.188 17.2667C202.416 16.6409 206.735 17.2458 210.628 19.0089C214.521 20.7721 217.823 23.6188 220.138 27.2082C222.453 30.7976 223.684 34.9777 223.683 39.2479Z" fill="#2F2E41"/>
<path d="M209.15 57.5649C216.433 50.2881 216.433 38.4902 209.15 31.2135C201.866 23.9367 190.057 23.9367 182.773 31.2135C175.49 38.4902 175.49 50.2881 182.773 57.5649C190.057 64.8416 201.866 64.8416 209.15 57.5649Z" fill="#9E616A"/>
<path d="M209.287 26.4705C206.398 23.7693 202.804 21.9374 198.919 21.1851C195.034 20.4329 191.016 20.7909 187.325 22.2181C187.216 22.2608 187.107 22.3082 186.998 22.3604C186.993 22.3604 186.993 22.3652 186.988 22.3652C186.632 22.5123 186.271 22.6642 185.924 22.8303L185.71 22.9347V22.9632C185.672 22.9917 185.629 23.0249 185.587 23.0534C185.499 23.1347 185.393 23.1934 185.278 23.2242C181.691 23.2717 178.769 24.4867 176.603 26.836C173.71 29.9684 172.351 35.0325 172.769 41.098L172.779 41.2831L172.941 41.3875C174.47 42.3415 175.919 43.1815 177.316 43.9172C178.142 44.3585 178.945 44.762 179.743 45.1322C179.838 45.1749 179.933 45.2223 180.028 45.265C188.104 48.9907 195.492 49.6647 202.589 47.3059L202.722 47.2631L205.739 42.2133C206.049 43.9386 206.88 45.5279 208.12 46.7688C209.359 48.0096 210.948 48.8428 212.674 49.1568L213.929 49.3799L215.767 49.7026L215.843 49.3562C217.667 41.1454 215.031 31.9523 209.287 26.4705Z" fill="#2F2E41"/>
<path d="M255.106 65.5788C248.759 62.3059 256.921 50.4276 255.281 43.4827C253.641 36.5377 241.829 34.304 241.077 27.2081C240.324 20.1121 238.554 12.7934 233.867 7.40894C230.872 3.96827 226.459 1.42827 221.916 1.85923C220.378 2.00504 218.89 2.48015 217.553 3.2522C216.217 4.02425 215.062 5.0751 214.168 6.33317C213.274 7.59124 212.662 9.02699 212.374 10.5426C212.086 12.0582 212.128 13.6181 212.497 15.1161C211.204 13.2848 207.856 13.6817 207.027 15.7647C206.29 17.6165 207.918 19.8595 209.833 20.0234C212.34 23.1155 215.21 26.3971 219.136 27.0209C220.401 27.2219 221.822 27.0746 222.746 26.1884C223.67 25.3022 223.742 23.5303 222.646 22.868C227.58 24.8263 230.473 30.1562 231.205 35.41C231.938 40.6637 230.925 45.9794 230.257 51.2417C229.59 56.504 229.302 62.0397 231.367 66.9263C233.808 72.7 239.425 76.8381 245.556 78.1652C251.688 79.4922 258.217 78.1952 263.767 75.2731C269.316 72.3507 273.944 67.8896 277.725 62.8881C271.212 67.5079 262.203 69.2386 255.106 65.5788Z" fill="#2F2E41"/>
<path d="M182.994 143.847L170.111 231.734L240.434 226.439L219.385 139.979L182.994 143.847Z" fill="#FFB8B8"/>
<path d="M256.561 327.619C256.498 327.922 256.419 328.221 256.323 328.516C248.207 331.447 239.908 333.843 231.478 335.687C229.701 329.849 226.295 318.796 223.311 309.755C220.874 302.374 218.722 296.337 217.972 295.583C215.886 293.509 217.972 290.742 217.972 290.742L209.064 263.077L205.017 250.509L203.63 276.912L201.615 315.156L201.558 316.228C201.558 316.228 198.784 324.529 200.171 325.915C201.558 327.301 198.784 332.84 198.784 332.84L197.986 340.106C196.969 340.158 195.957 340.196 194.936 340.224L194.589 340.334L194.304 340.243C192.931 340.286 191.554 340.313 190.171 340.324C189.587 340.329 189.002 340.334 188.413 340.334C188.138 340.334 187.862 340.334 187.587 340.329C183.601 340.315 179.645 340.185 175.72 339.94L173.283 320.125L170.765 299.65C170.765 299.65 173.535 294.121 170.765 291.354C169.097 289.688 169.934 287.268 170.869 285.606C170.29 283.039 169.497 279.09 168.428 273.243C168.39 273.048 168.356 272.849 168.318 272.65C167.981 270.794 167.679 268.975 167.411 267.192C166.936 264.054 166.565 261.041 166.28 258.155C165.314 248.809 165.18 239.395 165.881 230.025C166.147 226.693 166.48 224.254 166.698 222.844C166.717 222.711 166.922 221.966 167.254 220.789C167.777 218.905 168.637 215.915 169.601 212.569C170.114 210.794 170.656 208.919 171.192 207.054C172.128 203.822 173.059 200.618 173.81 198.027V198.013C174.47 195.739 174.998 193.945 175.273 193.006C175.406 192.545 175.478 192.294 175.478 192.294C175.478 192.294 175.625 192.261 175.905 192.199C176.774 191.999 178.922 191.52 181.896 190.879C184.998 190.224 188.993 189.394 193.383 188.549C197.14 187.828 201.188 187.092 205.212 186.432C206.656 186.2 208.1 185.972 209.525 185.758C218.328 184.448 226.409 183.703 230.238 184.553C230.503 184.609 230.764 184.68 231.021 184.766C231.281 184.852 231.531 184.965 231.767 185.103C231.886 185.175 233.036 189.655 234.504 195.493C234.518 195.55 234.532 195.611 234.546 195.668C234.988 197.434 235.459 199.313 235.938 201.235C236.428 203.196 236.922 205.194 237.406 207.14C238.846 212.92 240.176 218.269 240.86 220.889C241.121 221.905 241.292 222.507 241.33 222.574C242.936 225.246 244.247 231.795 245.311 240.011C246.261 247.344 247.017 256.005 247.601 264.42C247.891 268.582 248.138 272.688 248.347 276.541C249.055 289.508 249.34 299.631 249.34 299.631C249.34 299.631 250.399 308.07 252.504 312.052C252.763 312.566 253.094 313.04 253.487 313.461C254.888 314.861 255.05 316.076 254.865 316.94C254.784 317.348 254.615 317.733 254.371 318.07C254.315 318.152 254.253 318.23 254.185 318.302C254.004 319.161 254.036 320.051 254.278 320.895C254.52 321.738 254.964 322.51 255.573 323.143C256.917 324.496 256.808 326.432 256.561 327.619Z" fill="#2F2E41"/>
<path d="M233.525 115.659C233.444 115.061 233.359 114.458 233.268 113.851C233.216 113.461 233.154 113.072 233.097 112.688C232.494 108.806 235.007 105.483 231.753 102.797C230.992 102.178 230.372 101.405 229.933 100.528L229.188 99.0286L227.815 96.2474L224.812 90.2009L224.294 89.1615C224.148 88.8663 223.98 88.5823 223.791 88.3119C223.23 87.4978 222.499 86.8146 221.648 86.3091L214.19 81.8668C213.037 81.1836 212.109 80.179 211.52 78.9764L211.335 78.5967C210.513 76.9118 209.04 72.8824 207.297 71.1311L207.292 71.1264C206.912 70.6924 206.396 70.3997 205.829 70.2958L198.404 69.5602C197.216 69.4396 196.018 69.6295 194.926 70.1113C193.834 70.593 192.886 71.3501 192.176 72.3081L191.971 73.2336L190.779 78.6584L190.713 78.6726C190.361 78.7533 190.009 78.834 189.663 78.9337C181.962 81.0362 178.751 107.932 178.751 107.932C178.751 107.932 173.359 116.822 175.477 122.322L179.259 131.193C179.288 131.26 179.31 131.33 179.325 131.402C179.667 132.367 179.787 133.397 179.677 134.415L179.682 134.762L179.691 135.526L179.72 137.486L179.81 143.988L179.924 152.128L180.024 159.062L180.057 160.908L173.829 187.984C173.727 188.874 173.802 189.775 174.049 190.636C174.296 191.497 174.71 192.3 175.268 193.001L175.273 193.006C175.41 193.181 175.556 193.349 175.71 193.509L175.715 193.514C175.862 193.666 176.014 193.803 176.171 193.941C176.921 194.596 177.805 195.08 178.762 195.358C179.719 195.636 180.725 195.701 181.71 195.55L182.542 195.422H182.546L194.613 193.613H194.622L196.019 193.405H196.028L209.534 191.378H209.544L211.857 191.027C212.043 191.003 212.223 190.979 212.408 190.965L224.774 190.115C225.058 190.096 225.341 190.06 225.62 190.006H225.625C226.712 189.791 227.731 189.318 228.597 188.627C229.463 187.935 230.149 187.046 230.599 186.034C230.785 185.628 230.927 185.203 231.021 184.767C231.129 184.294 231.187 183.813 231.197 183.329L231.335 171.691L231.805 134.083C231.815 132.828 232.173 131.601 232.841 130.538C234.556 127.804 234.361 121.947 233.525 115.659Z" fill="#3B82F6"/>
<path d="M212.791 216.102C212.618 215.142 212.656 214.157 212.905 213.214C213.153 212.272 213.606 211.395 214.23 210.646C214.855 209.897 215.636 209.294 216.519 208.879C217.402 208.464 218.365 208.248 219.341 208.246L227.055 185.84L234.578 195.593L226.098 215.375C225.994 217.013 225.292 218.555 224.125 219.711C222.959 220.866 221.408 221.553 219.768 221.643C218.128 221.733 216.512 221.218 215.226 220.197C213.94 219.175 213.074 217.718 212.791 216.102Z" fill="#9E616A"/>
<path d="M242.228 168.962L240.494 173.329L238.071 200.339C237.318 200.527 236.599 200.83 235.938 201.236C234.501 202.123 233.408 203.47 232.834 205.057C232.261 206.644 232.241 208.378 232.779 209.978L233.491 212.114L228.194 210.486L219.487 207.814L209.221 204.662L210.959 199.029C211.362 197.734 211.443 196.362 211.197 195.029C210.95 193.696 210.383 192.443 209.544 191.378C209.336 191.113 209.112 190.861 208.874 190.623L209.525 185.759L209.909 182.868L205.211 186.433L196.023 193.405H196.019L194.803 194.33C194.803 194.33 194.736 194.083 194.613 193.613C194.38 192.707 193.943 190.97 193.382 188.549C190.606 176.488 188.561 164.27 187.259 151.962C186.974 149.19 186.727 146.352 186.527 143.471C186.323 140.505 186.171 137.496 186.09 134.468C185.406 109.821 189.197 83.9836 205.04 70.7705C205.806 70.7758 206.567 70.8974 207.297 71.1312C213.71 73.1008 220.746 82.7259 225.61 89.6125C226.76 91.2404 227.786 92.7117 228.655 93.8934L230.76 96.7553C233.633 100.666 235.622 105.153 236.589 109.907C236.793 110.913 236.953 111.932 237.069 112.963L239.368 134.093V139.537L242.228 168.962Z" fill="#3B82F6"/>
<path d="M0 206.839C4.12696 211.725 8.59074 216.316 13.3587 220.579L363.753 221.054C368.521 216.791 372.985 212.199 377.112 207.314L0 206.839Z" fill="#CCCCCC"/>
<path d="M190.171 340.324C189.587 340.329 189.002 340.333 188.413 340.333C188.138 340.333 187.862 340.333 187.587 340.329C183.601 340.314 179.645 340.185 175.72 339.94L175.815 340.713L175.477 339.925L167.948 322.412L173.283 320.125L183.069 315.924L186.038 326.124L188.879 335.891L189.725 338.786L190.171 340.324Z" fill="#FFB6B6"/>
<path d="M155.287 319.992L153.159 337.234C148.318 336.38 143.541 335.35 138.827 334.145V319.996L155.287 319.992Z" fill="#FFB6B6"/>
<path d="M80.2331 288.212V308.606C77.3447 306.751 74.5102 304.821 71.7295 302.816V288.212H80.2331Z" fill="#CACACA"/>
<path d="M113.179 284.814V295.004C113.178 296.881 112.432 298.681 111.104 300.009C109.776 301.336 107.974 302.083 106.095 302.085H70.713C63.9583 297.165 57.5182 291.828 51.4303 286.105C48.5467 283.4 45.747 280.609 43.0312 277.733H106.095C107.974 277.735 109.775 278.482 111.103 279.81C112.431 281.138 113.177 282.937 113.179 284.814Z" fill="#3F3D56"/>
<path d="M196.1 339.854L194.936 340.225L194.589 340.334L194.304 340.244C192.931 340.286 191.554 340.313 190.171 340.324C189.587 340.329 189.002 340.334 188.413 340.334C188.138 340.334 187.862 340.334 187.587 340.329C183.601 340.315 179.645 340.185 175.72 339.94L175.815 340.713L175.477 339.926C174.071 339.831 172.67 339.731 171.273 339.608L160.219 321.112L137.468 283.053L134.831 278.644C134.831 278.644 125.839 281.302 113.112 283.851C103.52 285.778 91.8101 287.633 80.2329 288.241C77.3778 288.393 74.5322 288.469 71.7293 288.445C64.4846 288.397 57.525 287.719 51.43 286.105C48.5464 283.4 45.7467 280.609 43.031 277.733C38.4015 272.842 34.0222 267.721 29.9098 262.389C29.8544 260.432 29.9545 258.473 30.2091 256.532C30.2519 256.209 30.2946 255.882 30.3469 255.55L31.6438 233.547L41.278 232.275L55.9383 230.339L71.8196 228.241L73.5678 241.919C73.5678 241.919 85.9336 241.292 101.601 241.501C126.765 241.843 160.437 244.349 164.998 255.104C165.425 256.114 165.853 257.135 166.28 258.155C175.135 279.347 183.268 301.924 188.793 317.965C189.848 321.022 190.803 323.836 191.653 326.361C194.461 334.7 196.1 339.854 196.1 339.854Z" fill="#2F2E41"/>
<path d="M169.164 267.23C168.932 269.242 168.686 271.246 168.428 273.243C166.148 290.903 163.008 307.771 160.219 321.112C158.856 327.624 157.573 333.29 156.513 337.804C155.392 337.628 154.274 337.438 153.16 337.234C148.319 336.38 143.541 335.35 138.827 334.145C137.426 333.789 136.032 333.417 134.646 333.029L137.468 283.053L138.399 266.522L167.411 267.192L169.164 267.23Z" fill="#2F2E41"/>
<path d="M215.812 189.93C217.022 189.255 218.365 188.853 219.747 188.752C221.129 188.652 222.517 188.856 223.811 189.349C225.106 189.842 226.277 190.613 227.241 191.607C228.205 192.602 228.94 193.795 229.392 195.103L263.075 195.143L253.422 209.73L222.916 207.456C220.666 208.07 218.268 207.838 216.177 206.804C214.086 205.77 212.448 204.005 211.572 201.845C210.697 199.685 210.645 197.279 211.426 195.082C212.208 192.886 213.768 191.053 215.812 189.93Z" fill="#FFB6B6"/>
<path d="M234.176 209.657L294.84 215.677L295 215.473C295.306 215.082 325.672 176.248 330.774 167.004C333.913 161.45 335.057 154.991 334.014 148.698L333.979 148.544L333.859 148.442C331.385 146.371 328.278 145.204 325.051 145.133C321.824 145.062 318.669 146.092 316.106 148.053C303.785 157.587 293.85 169.851 287.086 183.878L283.248 191.862L238.729 193.77L234.176 209.657Z" fill="#3B82F6"/>
<path d="M210.779 319.09L201.839 339.887C200.556 339.977 199.272 340.05 197.986 340.106C196.969 340.158 195.957 340.196 194.936 340.224L194.589 340.333L194.304 340.243C192.931 340.286 191.554 340.313 190.171 340.324C189.587 340.329 189.003 340.333 188.414 340.333C188.138 340.333 187.862 340.333 187.587 340.329L188.181 338.297L188.879 335.891L191.653 326.361L195.658 312.602L201.615 315.155L210.779 319.09Z" fill="#FFB6B6"/>
<path d="M275.202 320.59C270.608 322.807 265.921 324.846 261.14 326.708L256.466 318.853L271.535 312.242L275.202 320.59Z" fill="#FFB6B6"/>
<path d="M306.998 284.89V301.435C304.219 303.485 301.384 305.463 298.494 307.368V284.89H306.998Z" fill="#CACACA"/>
<path d="M336.87 274.411C334.48 277.059 332.019 279.639 329.487 282.152C323.528 288.081 317.2 293.629 310.542 298.763H272.632C271.626 298.763 270.631 298.548 269.714 298.133C268.797 297.718 267.98 297.113 267.316 296.357L267.311 296.342C266.521 295.451 265.971 294.373 265.715 293.21L265.71 293.2C265.603 292.701 265.549 292.192 265.549 291.682V281.492C265.55 279.615 266.297 277.815 267.625 276.488C268.952 275.16 270.753 274.413 272.632 274.411H336.87Z" fill="#3F3D56"/>
<path d="M352.489 234.638L348.38 252.227C348.782 254.775 348.915 257.359 348.779 259.935C346.831 262.545 344.822 265.103 342.75 267.609C340.841 269.921 338.88 272.188 336.869 274.41C334.48 277.059 332.019 279.639 329.487 282.151C322.893 284.221 315.121 285.065 306.997 285.122C304.195 285.146 301.349 285.07 298.494 284.918C286.917 284.311 275.207 282.455 265.615 280.528C263.078 280.025 260.693 279.512 258.499 279.014C254.342 278.079 250.864 277.206 248.347 276.541C245.511 275.801 243.895 275.322 243.895 275.322L233.107 293.371L223.311 309.754L205.463 339.612C204.256 339.721 203.048 339.813 201.838 339.887C200.556 339.978 199.271 340.05 197.986 340.106C196.969 340.158 195.957 340.196 194.936 340.224L194.589 340.333L194.304 340.243L189.724 338.786L188.18 338.297L182.627 336.532C182.627 336.532 183.867 332.631 186.038 326.124C186.836 323.736 187.758 320.993 188.793 317.965C192.532 307.021 197.715 292.322 203.629 276.912C205.382 272.336 207.197 267.695 209.064 263.077C210.594 259.285 212.152 255.507 213.729 251.781C216.47 245.322 229.715 241.838 245.311 240.011C246.104 239.921 246.902 239.83 247.705 239.745C255.653 238.91 264.085 238.478 271.971 238.278C275.919 238.179 279.729 238.141 283.273 238.136C284.418 238.136 285.531 238.139 286.613 238.146H286.617C289.539 238.16 292.228 238.203 294.594 238.25C295.054 238.259 295.501 238.274 295.938 238.283H295.943C296.237 238.288 296.527 238.297 296.812 238.302C301.986 238.435 305.159 238.596 305.159 238.596L306.389 228.952L306.641 227.007L306.879 225.156V225.151L306.907 224.918L307.102 224.913L310.522 224.847L339.273 224.287L354.978 223.979L352.489 234.638Z" fill="#2F2E41"/>
<path d="M278.746 318.834C277.572 319.432 276.39 320.02 275.202 320.59C270.608 322.806 265.921 324.845 261.14 326.707C259.777 327.244 258.409 327.761 257.026 328.259C256.874 328.046 256.717 327.832 256.561 327.619C249.967 318.577 241.587 306.646 233.107 293.371C229.558 287.818 225.991 282.028 222.527 276.114L247.601 264.42L250.413 263.11L258.499 279.014L265.71 293.2L267.316 296.356L278.746 318.834Z" fill="#2F2E41"/>
<path d="M315.141 121.089C327.899 121.089 338.241 110.756 338.241 98.0107C338.241 85.265 327.899 74.9326 315.141 74.9326C302.383 74.9326 292.041 85.265 292.041 98.0107C292.041 110.756 302.383 121.089 315.141 121.089Z" fill="#FFB6B6"/>
<path d="M314.377 120.087C319.778 122.676 326.425 121.799 331.582 118.753C336.738 115.707 340.533 110.74 343.185 105.374C345.127 101.444 346.538 96.9427 345.413 92.7063C344.288 88.4698 339.802 84.9201 335.598 86.1749C338.478 83.8582 338.142 79.0808 335.815 76.2103C333.488 73.3398 329.817 71.9595 326.269 70.9192C321.12 69.4094 315.71 68.3438 310.4 69.116C305.091 69.8883 299.863 72.7604 297.364 77.5045C295.63 77.951 293.796 77.8101 292.15 77.104C290.505 76.3979 289.14 75.1665 288.27 73.6026C287.691 75.106 287.624 76.7581 288.08 78.3032C288.536 79.8483 289.488 81.2003 290.791 82.15L283.599 78.252C281.766 80.7908 283.432 84.6628 286.215 86.101C288.998 87.5391 292.362 87.1555 295.4 86.3871C298.437 85.6187 294.854 92.0274 297.987 92.0891C301.119 92.1508 304.508 93.7888 305.405 96.7883C305.875 98.3593 305.601 100.046 305.74 101.68C305.878 103.314 306.662 105.126 308.247 105.552C309.248 105.821 310.344 105.465 311.337 105.763C312.568 106.133 313.318 107.449 313.426 108.728C313.535 110.008 313.133 111.27 312.736 112.492C311.169 117.319 316.199 114.613 314.632 119.441L314.377 120.087Z" fill="#2F2E41"/>
<path d="M359.701 188.255C359.511 169.195 358.646 156.205 357.135 149.641C353.078 131.995 334.337 128.777 331.401 128.378C331.089 127.547 330.608 126.788 329.989 126.15C329.371 125.512 328.627 125.008 327.805 124.669C326.983 124.33 326.1 124.164 325.211 124.181C324.321 124.198 323.445 124.397 322.637 124.767L309.321 130.861C306.619 132.101 304.202 133.882 302.219 136.095C300.235 138.308 298.728 140.904 297.791 143.723L295.815 149.75L294.822 190.201L298.1 207.216L298.105 207.225L300.314 218.687L298.793 220.965L290.114 233.969L289.967 234.197L289.962 234.202L289.582 234.767C290.109 235.056 290.632 235.341 291.145 235.626C292.475 236.357 293.772 237.073 295.036 237.776C295.34 237.947 295.639 238.113 295.938 238.284H295.943C296.133 238.388 296.323 238.492 296.508 238.597C301.249 241.245 305.565 243.699 309.454 245.958C309.995 246.271 310.532 246.584 311.059 246.893C329.017 257.387 338.119 263.813 342.751 267.61C344.822 265.104 346.831 262.546 348.779 259.935C350.546 257.576 352.258 255.176 353.915 252.735C354.204 250.827 354.399 248.92 354.589 247.05C354.817 244.8 355.055 242.47 355.454 240.177C355.63 239.162 354.955 238.198 354.304 237.268C353.701 236.399 353.131 235.583 353.249 234.814C353.373 234.022 354.247 233.158 355.097 232.318C356.024 231.397 356.983 230.448 357.121 229.446C357.501 226.656 357.839 223.855 358.133 221.046C358.618 216.475 358.99 211.891 359.249 207.292C359.615 200.941 359.766 194.596 359.701 188.255Z" fill="#3B82F6"/>
<path d="M271.768 255.535C272.16 254.207 272.838 252.981 273.755 251.943C274.672 250.906 275.806 250.082 277.076 249.529C278.347 248.976 279.723 248.709 281.108 248.745C282.494 248.781 283.854 249.12 285.094 249.739L309.186 226.222L312.506 243.391L289.118 263.091C287.94 265.103 286.065 266.613 283.847 267.336C281.629 268.059 279.223 267.943 277.084 267.012C274.945 266.081 273.223 264.398 272.243 262.283C271.264 260.168 271.095 257.767 271.768 255.535Z" fill="#FFB6B6"/>
<path d="M298.705 256.792L346.262 218.688L346.233 218.43C346.178 217.937 340.676 168.965 337.846 158.794C336.199 152.632 332.492 147.218 327.34 143.451L327.207 143.365L327.05 143.377C323.831 143.626 320.794 144.964 318.439 147.169C316.084 149.375 314.552 152.316 314.094 155.508C311.968 170.933 313.46 186.64 318.451 201.389L321.3 209.776L290.831 242.259L298.705 256.792Z" fill="#3B82F6"/>
<path d="M55.1658 120.675C66.5495 120.675 75.7778 111.455 75.7778 100.082C75.7778 88.7093 66.5495 79.4897 55.1658 79.4897C43.782 79.4897 34.5537 88.7093 34.5537 100.082C34.5537 111.455 43.782 120.675 55.1658 120.675Z" fill="#A0616A"/>
<path d="M27.4734 256.928L27.361 256.77C21.3566 248.372 30.3871 228.191 31.7492 225.266C30.1318 224.742 28.7464 223.673 27.8289 222.243C26.9114 220.813 26.5185 219.109 26.7171 217.422L27.3043 212.436L27.9163 207.545L23.5318 203.164L23.5195 203.055L20.9963 180.998L17.3276 166.348C15.9453 160.81 16.0631 155.004 17.6689 149.526C19.2748 144.048 22.3108 139.096 26.4653 135.178L34.9454 133.833L45.2514 123.912H61.8709L67.5694 129.351C78.7728 138.526 81.4325 134.54 94.0657 151.812L85.0203 175.62L90.0762 210.736L90.0793 217.091L92.7127 220.014C93.6612 221.068 94.3505 222.328 94.7256 223.694C95.1006 225.06 95.1511 226.495 94.8729 227.884L94.5266 229.614C95.8651 230.187 97.0464 231.073 97.9717 232.196C98.8969 233.319 99.539 234.648 99.8441 236.07L100.769 240.382C101.56 241.425 106.783 248.383 106.783 250.285C106.783 250.57 106.572 250.846 106.119 251.153C102.56 253.561 82.887 258.47 74.1798 254.989C64.9051 251.284 28.0364 256.842 27.665 256.898L27.4734 256.928Z" fill="#3F3D56"/>
<path d="M17.002 173.395L34.1404 170.043C40.4786 179.499 43.8813 205.357 43.8813 205.357L62.8297 244.616C63.9944 245.323 64.9507 246.326 65.6014 247.522C66.252 248.718 66.5737 250.066 66.5336 251.426C66.4935 252.787 66.0932 254.113 65.3733 255.269C64.6534 256.425 63.6397 257.37 62.4354 258.007C61.2312 258.644 59.8794 258.951 58.5177 258.897C57.1561 258.842 55.8332 258.428 54.6839 257.697C53.5345 256.965 52.5998 255.943 51.9748 254.733C51.3498 253.523 51.0569 252.169 51.1259 250.81L26.4123 204.295L17.002 173.395Z" fill="#A0616A"/>
<path d="M16.9057 177.457L16.4185 152.008L24.4837 141.229C26.0748 139.118 28.225 137.495 30.6913 136.541C33.1577 135.587 35.8419 135.342 38.4405 135.832C41.9587 136.521 45.084 138.518 47.1844 141.421C49.2849 144.323 50.2037 147.914 49.7553 151.468C48.3863 162.244 45.2784 175.729 38.2469 178.78L38.1757 178.811L45.4631 204.273L18.438 208.045L16.9057 177.457Z" fill="#3F3D56"/>
<path d="M118.693 175.208C118.693 175.208 98.1257 159.147 86.9708 156.84L77.0977 171.231L103.799 187.579L155.785 202.596C156.696 203.607 157.858 204.358 159.153 204.775C160.448 205.191 161.83 205.258 163.159 204.968C164.488 204.678 165.717 204.042 166.721 203.125C167.725 202.207 168.467 201.041 168.874 199.744C169.28 198.446 169.336 197.065 169.035 195.739C168.735 194.414 168.088 193.191 167.162 192.196C166.235 191.201 165.062 190.468 163.76 190.072C162.458 189.677 161.075 189.632 159.751 189.943L118.693 175.208Z" fill="#A0616A"/>
<path d="M82.508 178.436L61.0736 164.677L56.5979 151.983C55.7283 149.488 55.5747 146.8 56.1542 144.222C56.7338 141.644 58.0235 139.279 59.8776 137.395C62.4082 134.858 65.8086 133.376 69.3914 133.248C72.9741 133.12 76.4719 134.356 79.1774 136.706C87.3768 143.839 97.9435 146.23 96.5674 153.764L100.515 154.34L120.702 169.657L108.798 194.188L82.508 178.436Z" fill="#3F3D56"/>
<path d="M31.7861 86.5515C34.1006 82.9742 38.4439 80.59 42.6544 81.26C43.0463 78.5754 44.1679 76.0498 45.8971 73.958C47.6263 71.8661 49.8968 70.2884 52.4614 69.3965C55.026 68.5046 57.7863 68.3327 60.4419 68.8996C63.0975 69.4664 65.5465 70.7503 67.5223 72.6114C68.762 71.626 70.5641 71.5742 72.0356 72.1602C73.4848 72.8185 74.7455 73.8295 75.7023 75.1006C78.1184 78.1107 79.6722 81.719 80.1985 85.5415C80.7248 89.3639 80.2037 93.2573 78.6908 96.8073C79.2054 94.9384 77.3306 93.1802 75.4364 92.7608C73.5423 92.3414 71.5554 92.7382 69.6346 92.4651C67.1727 92.1151 64.9596 90.6883 62.4938 90.3672C60.4215 90.0973 58.3375 90.6281 56.3166 91.1602C54.2958 91.6922 52.2172 92.2348 50.1419 91.9886C48.0665 91.7424 45.3933 99.5999 45.4291 105.134C45.436 106.183 45.2197 107.529 44.1938 107.752C42.9304 108.026 42.1983 106.284 40.9957 105.809C39.9244 105.386 38.64 106.17 38.267 107.259C38.1154 107.816 38.0992 108.401 38.2196 108.965C38.3401 109.53 38.5937 110.057 38.9595 110.504C39.6986 111.39 40.5761 112.15 41.558 112.756L41.0628 113.168C40.2389 114.255 38.5301 114.302 37.3427 113.629C36.1554 112.957 35.375 111.76 34.6717 110.591C32.4748 106.94 30.5478 103.051 29.7725 98.8625C28.9972 94.6741 29.4717 90.1288 31.7861 86.5515Z" fill="#2F2E41"/>
<path opacity="0.2" d="M212.801 121.158C214.892 129.86 215.856 138.795 215.671 147.742C215.493 156.691 214.183 165.581 211.772 174.202C210.412 179.07 208.696 183.832 206.638 188.449C206.268 189.278 207.495 190.004 207.869 189.167C211.584 180.848 214.211 172.084 215.685 163.094C217.165 154.102 217.497 144.958 216.673 135.882C216.206 130.794 215.371 125.747 214.175 120.779C213.96 119.889 212.586 120.266 212.801 121.158Z" fill="black"/>
<path opacity="0.2" d="M345.861 182.053L333.947 211.107C332.03 215.783 330.17 220.488 328.174 225.131C326.378 229.312 324.329 233.511 321.305 236.958C318.253 240.437 314.147 243.261 309.456 243.813C308.556 243.919 308.546 245.344 309.456 245.237C313.741 244.733 317.581 242.605 320.682 239.662C324.036 236.479 326.4 232.426 328.329 228.266C330.48 223.629 332.308 218.835 334.247 214.107L340.338 199.252L347.235 182.431C347.583 181.584 346.204 181.215 345.861 182.053Z" fill="black"/>
<path d="M204.642 208.425C204.851 209.033 205.248 209.56 205.776 209.93C206.303 210.299 206.935 210.492 207.579 210.48L220.164 210.156C220.813 210.144 221.44 209.922 221.953 209.523C222.465 209.125 222.834 208.572 223.005 207.946L224.786 188.921C225.418 189.206 226.106 189.348 226.8 189.334C227.402 189.319 227.996 189.185 228.547 188.941C229.098 188.696 229.595 188.346 230.01 187.91C230.426 187.473 230.751 186.96 230.967 186.398C231.184 185.836 231.288 185.237 231.273 184.635C231.257 184.033 231.124 183.44 230.879 182.889C230.635 182.339 230.284 181.842 229.847 181.427C229.411 181.012 228.896 180.687 228.334 180.471C227.771 180.254 227.172 180.151 226.569 180.166C226.292 180.165 226.015 180.194 225.744 180.252C225.45 179.933 225.091 179.68 224.692 179.508C224.294 179.336 223.863 179.249 223.429 179.254L204.07 179.753C203.909 179.759 203.75 179.779 203.593 179.812C203.168 179.891 202.765 180.06 202.412 180.308C202.058 180.555 201.761 180.876 201.542 181.247C201.323 181.619 201.186 182.033 201.14 182.462C201.094 182.891 201.141 183.325 201.277 183.735L204.642 208.425ZM225.151 187.629L226.419 183.095C226.563 182.571 226.566 182.019 226.428 181.493C226.49 181.493 226.544 181.464 226.606 181.464C227.475 181.446 228.315 181.773 228.943 182.373C229.571 182.973 229.935 183.798 229.956 184.666C229.976 185.534 229.651 186.375 229.052 187.004C228.453 187.633 227.628 187.999 226.759 188.022C226.198 188.039 225.642 187.903 225.151 187.629Z" fill="#2F2E41"/>
<path d="M203.592 179.812C204.005 182.168 208.642 183.825 214.217 183.537C219.345 183.301 223.537 181.502 224.305 179.37C224.021 179.286 223.725 179.247 223.429 179.254L204.07 179.753C203.909 179.759 203.749 179.779 203.592 179.812Z" fill="#3F3D56"/>
<path d="M162.723 182.786C162.859 182.376 162.906 181.942 162.861 181.513C162.815 181.084 162.678 180.67 162.459 180.298C162.239 179.927 161.943 179.606 161.589 179.359C161.235 179.111 160.833 178.942 160.408 178.863C160.251 178.83 160.091 178.81 159.931 178.804L140.572 178.304C140.137 178.3 139.707 178.387 139.308 178.558C138.909 178.73 138.551 178.984 138.256 179.302C137.985 179.245 137.709 179.216 137.431 179.217C136.215 179.186 135.035 179.64 134.153 180.478C133.271 181.316 132.759 182.47 132.728 183.686C132.697 184.901 133.152 186.079 133.99 186.961C134.829 187.842 135.984 188.354 137.201 188.385C137.895 188.398 138.583 188.257 139.214 187.971L140.995 206.997C141.167 207.622 141.536 208.176 142.048 208.574C142.56 208.973 143.188 209.195 143.837 209.207L156.422 209.531C157.066 209.542 157.697 209.35 158.225 208.98C158.753 208.611 159.15 208.084 159.359 207.475L162.723 182.786ZM137.241 187.072C136.372 187.05 135.548 186.684 134.949 186.055C134.35 185.426 134.025 184.585 134.045 183.717C134.065 182.849 134.429 182.024 135.057 181.424C135.685 180.824 136.526 180.497 137.395 180.515C137.456 180.515 137.511 180.544 137.572 180.544C137.434 181.069 137.438 181.622 137.582 182.146L138.849 186.679C138.359 186.954 137.803 187.09 137.241 187.072Z" fill="#2F2E41"/>
<path d="M160.408 178.863C159.995 181.219 155.358 182.875 149.783 182.587C144.656 182.351 140.463 180.553 139.695 178.421C139.98 178.337 140.275 178.298 140.571 178.304L159.93 178.804C160.091 178.81 160.251 178.83 160.408 178.863Z" fill="#3F3D56"/>
<path d="M142.061 137.534C143.031 136.826 144.145 136.339 145.323 136.108C146.502 135.876 147.717 135.906 148.883 136.194C150.048 136.483 151.137 137.023 152.071 137.777C153.005 138.531 153.763 139.481 154.29 140.559L183.275 137.056L176.504 150.62L150.017 151.868C148.146 152.632 146.058 152.684 144.151 152.014C142.243 151.344 140.648 149.998 139.667 148.231C138.686 146.464 138.388 144.4 138.829 142.428C139.271 140.456 140.421 138.715 142.061 137.534Z" fill="#9E616A"/>
<path d="M236.589 109.907C235.734 111.582 234.694 113.533 233.525 115.659C229.421 123.153 223.782 132.825 219.44 140.187C215.729 146.466 212.96 151.069 212.884 151.198L212.765 151.387L187.259 151.962L181.786 152.085L179.924 152.128L159.938 152.579L160.129 151.392L161.995 139.631L162.185 138.431L179.691 135.526L186.09 134.468L200.285 132.113L202.751 124.842C207.093 112.063 214.35 100.467 223.948 90.9697C224.228 90.6992 224.513 90.4429 224.813 90.2008C225.074 89.992 225.34 89.7927 225.611 89.6123C226.76 91.2402 227.786 92.7115 228.656 93.8933L230.76 96.7552C233.634 100.666 235.623 105.153 236.589 109.907Z" fill="#3B82F6"/>
<path d="M130.532 153.37C130.741 153.979 131.138 154.506 131.666 154.875C132.194 155.244 132.825 155.437 133.47 155.425L146.055 155.102C146.704 155.089 147.331 154.867 147.843 154.469C148.355 154.07 148.725 153.517 148.896 152.892L150.677 133.866C151.309 134.152 151.997 134.293 152.69 134.279C153.907 134.249 155.062 133.736 155.901 132.855C156.74 131.974 157.194 130.796 157.163 129.58C157.133 128.364 156.62 127.211 155.738 126.373C154.856 125.534 153.677 125.081 152.46 125.111C152.183 125.11 151.906 125.139 151.635 125.197C151.34 124.878 150.982 124.625 150.583 124.453C150.184 124.281 149.754 124.195 149.32 124.199L129.961 124.698C129.8 124.704 129.64 124.724 129.483 124.758C129.059 124.837 128.656 125.006 128.302 125.253C127.949 125.501 127.652 125.821 127.433 126.193C127.213 126.564 127.076 126.979 127.031 127.408C126.985 127.837 127.032 128.271 127.168 128.68L130.532 153.37ZM151.042 132.574L152.309 128.04C152.454 127.516 152.457 126.964 152.319 126.439C152.381 126.438 152.435 126.409 152.496 126.409C153.365 126.391 154.206 126.718 154.834 127.319C155.462 127.919 155.826 128.743 155.846 129.611C155.867 130.48 155.542 131.32 154.942 131.949C154.343 132.578 153.519 132.944 152.65 132.967C152.088 132.984 151.532 132.849 151.042 132.574Z" fill="#CCCCCC"/>
<path d="M129.483 124.758C129.895 127.114 134.532 128.77 140.108 128.482C145.235 128.246 149.427 126.447 150.196 124.316C149.911 124.232 149.616 124.192 149.319 124.199L129.96 124.698C129.8 124.704 129.64 124.724 129.483 124.758Z" fill="#3F3D56"/>
</g>
<defs>
<clipPath id="clip0_242_295">
<rect width="378" height="339" fill="white" transform="translate(0 0.811523)"/>
</clipPath>
</defs>
</svg>
